<svg width="1200" height="800" viewBox="0 0 1200 800" fill="none" xmlns="http://www.w3.org/2000/svg">
  <rect width="1200" height="800" rx="48" fill="#FCFBF7"/>
  <rect x="120" y="120" width="960" height="560" rx="40" fill="#F7F3E8"/>
  <rect x="174" y="170" width="376" height="460" rx="28" fill="#0F5B46"/>
  <rect x="606" y="170" width="420" height="118" rx="24" fill="white"/>
  <rect x="642" y="202" width="110" height="16" rx="8" fill="#DCEEE7"/>
  <rect x="642" y="232" width="256" height="26" rx="13" fill="#0F7B5D"/>
  <rect x="606" y="320" width="420" height="118" rx="24" fill="white"/>
  <rect x="642" y="352" width="110" height="16" rx="8" fill="#FFF0DE"/>
  <rect x="642" y="382" width="210" height="26" rx="13" fill="#EF7A33"/>
  <rect x="606" y="470" width="420" height="118" rx="24" fill="white"/>
  <rect x="642" y="502" width="110" height="16" rx="8" fill="#DCEEE7"/>
  <rect x="642" y="532" width="234" height="26" rx="13" fill="#0F5B46"/>
  <circle cx="362" cy="314" r="82" fill="#EAF5EF"/>
  <circle cx="362" cy="288" r="28" fill="#E0A52B"/>
  <path d="M304 434C320 384 339 362 362 362C385 362 404 384 420 434" stroke="#F7F3E8" stroke-width="20" stroke-linecap="round"/>
  <rect x="234" y="490" width="256" height="16" rx="8" fill="#DCEEE7"/>
  <rect x="234" y="520" width="184" height="26" rx="13" fill="#EF7A33"/>
</svg>
