<svg width="1200" height="800" viewBox="0 0 1200 800" fill="none" xmlns="http://www.w3.org/2000/svg">
  <rect width="1200" height="800" rx="48" fill="#F7F3E8"/>
  <circle cx="956" cy="148" r="120" fill="#E8C56A"/>
  <circle cx="1028" cy="652" r="164" fill="#DCEEE7"/>
  <circle cx="236" cy="164" r="96" fill="#EAF5EF"/>
  <path d="M0 592C128 524 241 505 340 535C440 565 555 652 669 652C815 652 911 498 1066 498C1121 498 1166 513 1200 532V800H0V592Z" fill="#0F5B46"/>
  <path d="M0 664C100 615 216 595 318 612C441 632 552 731 680 731C807 731 915 636 1046 636C1109 636 1159 648 1200 664V800H0V664Z" fill="#0A4333"/>
  <rect x="148" y="154" width="388" height="244" rx="28" fill="white"/>
  <rect x="184" y="194" width="164" height="18" rx="9" fill="#DCEEE7"/>
  <rect x="184" y="232" width="280" height="34" rx="17" fill="#0F5B46"/>
  <rect x="184" y="286" width="232" height="16" rx="8" fill="#B7C9C3"/>
  <rect x="184" y="318" width="198" height="16" rx="8" fill="#B7C9C3"/>
  <rect x="184" y="354" width="146" height="28" rx="14" fill="#EF7A33"/>
  <circle cx="722" cy="352" r="132" fill="#EAF5EF"/>
  <circle cx="722" cy="314" r="42" fill="#E0A52B"/>
  <path d="M634 526C653 442 686 404 722 404C758 404 791 442 810 526" stroke="#0F5B46" stroke-width="24" stroke-linecap="round"/>
  <path d="M592 564C650 626 792 626 852 564" stroke="#EF7A33" stroke-width="20" stroke-linecap="round"/>
  <rect x="814" y="188" width="208" height="146" rx="26" fill="white"/>
  <rect x="850" y="224" width="102" height="14" rx="7" fill="#DCEEE7"/>
  <rect x="850" y="254" width="126" height="26" rx="13" fill="#0F7B5D"/>
  <rect x="850" y="294" width="82" height="16" rx="8" fill="#B7C9C3"/>
</svg>
